<mxfile host="drawio-plugin" modified="2022-08-22T08:02:18.397Z" agent="5.0 (Macintosh; Intel Mac OS X 10_15_7) AppleWebKit/537.36 (KHTML, like Gecko) Chrome/98.0.4758.102 Safari/537.36" version="15.5.4" etag="prPSrJ1ajFBxRfhKN9gQ" type="embed"><diagram id="IhcWoHfWPLEeoma1BeQp" name="Page-1"><mxGraphModel dx="900" dy="708" grid="0" gridSize="10" guides="1" tooltips="1" connect="1" arrows="1" fold="1" page="1" pageScale="1" pageWidth="850" pageHeight="1100" background="#EEEEEE" math="0" shadow="0"><root><mxCell id="0"/><mxCell id="1" parent="0"/><mxCell id="14" style="edgeStyle=orthogonalEdgeStyle;curved=1;rounded=1;sketch=1;orthogonalLoop=1;jettySize=auto;html=1;exitX=0.5;exitY=1;exitDx=0;exitDy=0;entryX=0.5;entryY=0;entryDx=0;entryDy=0;fontSize=16;fontColor=#1A1A1A;strokeColor=#182E3E;" edge="1" parent="1" source="10" target="11"><mxGeometry relative="1" as="geometry"/></mxCell><mxCell id="10" value="&lt;font style=&quot;font-size: 16px&quot;&gt;getBean()&lt;/font&gt;" style="rounded=0;whiteSpace=wrap;html=1;sketch=1;fontSize=14;fontColor=#1A1A1A;strokeColor=#909090;fillColor=#F5AB50;" vertex="1" parent="1"><mxGeometry x="430" y="107" width="120" height="60" as="geometry"/></mxCell><mxCell id="15" style="edgeStyle=orthogonalEdgeStyle;curved=1;rounded=1;sketch=1;orthogonalLoop=1;jettySize=auto;html=1;exitX=0.5;exitY=1;exitDx=0;exitDy=0;fontSize=16;fontColor=#1A1A1A;strokeColor=#182E3E;" edge="1" parent="1" source="11" target="12"><mxGeometry relative="1" as="geometry"/></mxCell><mxCell id="11" value="&lt;span style=&quot;font-size: 16px&quot;&gt;实例化&lt;/span&gt;" style="rounded=0;whiteSpace=wrap;html=1;sketch=1;fontSize=14;fontColor=#1A1A1A;strokeColor=#909090;fillColor=#F5AB50;" vertex="1" parent="1"><mxGeometry x="430" y="229" width="120" height="60" as="geometry"/></mxCell><mxCell id="16" style="edgeStyle=orthogonalEdgeStyle;curved=1;rounded=1;sketch=1;orthogonalLoop=1;jettySize=auto;html=1;exitX=0.5;exitY=1;exitDx=0;exitDy=0;entryX=0.5;entryY=0;entryDx=0;entryDy=0;fontSize=16;fontColor=#1A1A1A;strokeColor=#182E3E;" edge="1" parent="1" source="12" target="13"><mxGeometry relative="1" as="geometry"/></mxCell><mxCell id="12" value="&lt;span style=&quot;font-size: 16px&quot;&gt;填充属性&lt;/span&gt;" style="rounded=0;whiteSpace=wrap;html=1;sketch=1;fontSize=14;fontColor=#1A1A1A;strokeColor=#909090;fillColor=#F5AB50;" vertex="1" parent="1"><mxGeometry x="430" y="333" width="120" height="60" as="geometry"/></mxCell><mxCell id="19" style="edgeStyle=orthogonalEdgeStyle;rounded=1;sketch=1;orthogonalLoop=1;jettySize=auto;html=1;exitX=0.5;exitY=1;exitDx=0;exitDy=0;entryX=1;entryY=0.5;entryDx=0;entryDy=0;fontSize=16;fontColor=#1A1A1A;strokeColor=#182E3E;" edge="1" parent="1" source="13" target="10"><mxGeometry relative="1" as="geometry"><Array as="points"><mxPoint x="490" y="548"/><mxPoint x="598" y="548"/><mxPoint x="598" y="137"/></Array></mxGeometry></mxCell><mxCell id="13" value="&lt;span style=&quot;font-size: 16px&quot;&gt;初始化&lt;/span&gt;" style="rounded=0;whiteSpace=wrap;html=1;sketch=1;fontSize=14;fontColor=#1A1A1A;strokeColor=#909090;fillColor=#F5AB50;" vertex="1" parent="1"><mxGeometry x="430" y="437" width="120" height="60" as="geometry"/></mxCell><mxCell id="20" style="edgeStyle=orthogonalEdgeStyle;rounded=1;sketch=1;orthogonalLoop=1;jettySize=auto;html=1;exitX=1;exitY=0.5;exitDx=0;exitDy=0;fontSize=16;fontColor=#1A1A1A;strokeColor=#182E3E;" edge="1" parent="1" source="17"><mxGeometry relative="1" as="geometry"><mxPoint x="491" y="195" as="targetPoint"/></mxGeometry></mxCell><mxCell id="17" value="BeanFactory&lt;br&gt;PostProcessor" style="rounded=1;whiteSpace=wrap;html=1;sketch=1;fontSize=16;strokeColor=#6c8ebf;fillColor=#dae8fc;" vertex="1" parent="1"><mxGeometry x="179" y="165" width="120" height="60" as="geometry"/></mxCell><mxCell id="23" style="edgeStyle=orthogonalEdgeStyle;rounded=1;sketch=1;orthogonalLoop=1;jettySize=auto;html=1;exitX=0.5;exitY=0;exitDx=0;exitDy=0;entryX=0.5;entryY=0;entryDx=0;entryDy=0;fontSize=16;fontColor=#1A1A1A;strokeColor=#182E3E;" edge="1" parent="1" source="18" target="13"><mxGeometry relative="1" as="geometry"/></mxCell><mxCell id="24" style="edgeStyle=orthogonalEdgeStyle;rounded=1;sketch=1;orthogonalLoop=1;jettySize=auto;html=1;exitX=0.5;exitY=1;exitDx=0;exitDy=0;entryX=0.5;entryY=1;entryDx=0;entryDy=0;fontSize=16;fontColor=#1A1A1A;strokeColor=#182E3E;" edge="1" parent="1" source="18" target="13"><mxGeometry relative="1" as="geometry"/></mxCell><mxCell id="18" value="Bean&lt;br&gt;PostProcessor" style="rounded=1;whiteSpace=wrap;html=1;sketch=1;fontSize=16;strokeColor=#6c8ebf;fillColor=#dae8fc;" vertex="1" parent="1"><mxGeometry x="179" y="437" width="120" height="60" as="geometry"/></mxCell></root></mxGraphModel></diagram></mxfile>